<svg width="29" height="29" viewBox="0 0 29 29" fill="none" xmlns="http://www.w3.org/2000/svg">
<path d="M26.4689 13.3871C26.8869 13.3871 27.2479 13.5391 27.5519 13.8431C27.8559 14.1091 28.0079 14.4321 28.0079 14.8121C28.0079 15.2301 27.8559 15.5911 27.5519 15.8951C27.2479 16.1611 26.8869 16.2941 26.4689 16.2941H15.5249V27.1811C15.5249 27.5991 15.3729 27.9601 15.0689 28.2641C14.8029 28.5681 14.4799 28.7201 14.0999 28.7201C13.7199 28.7201 13.3779 28.5681 13.0739 28.2641C12.8079 27.9601 12.6749 27.5991 12.6749 27.1811V16.2941H1.73089C1.31289 16.2941 0.951895 16.1611 0.647895 15.8951C0.343895 15.5911 0.191895 15.2301 0.191895 14.8121C0.191895 14.4321 0.343895 14.1091 0.647895 13.8431C0.951895 13.5391 1.31289 13.3871 1.73089 13.3871H12.6749V2.44305C12.6749 2.02505 12.8079 1.66405 13.0739 1.36005C13.3779 1.05605 13.7199 0.904053 14.0999 0.904053C14.4799 0.904053 14.8029 1.05605 15.0689 1.36005C15.3729 1.66405 15.5249 2.02505 15.5249 2.44305V13.3871H26.4689Z" fill="#A7B5FF"/>
</svg>
