<svg width="24" height="30" viewBox="0 0 24 30" fill="none" xmlns="http://www.w3.org/2000/svg">
<path d="M15.9272 11.063C15.7455 11.063 15.5713 11.1352 15.4428 11.2636C15.3144 11.3921 15.2422 11.5663 15.2422 11.748V24.7C15.2422 24.8818 15.3144 25.0562 15.443 25.1847C15.5715 25.3133 15.7459 25.3855 15.9277 25.3855C16.1095 25.3855 16.2839 25.3133 16.4124 25.1847C16.541 25.0562 16.6132 24.8818 16.6132 24.7V11.751C16.6136 11.6607 16.5961 11.5712 16.5618 11.4877C16.5275 11.4042 16.477 11.3283 16.4133 11.2643C16.3495 11.2004 16.2738 11.1497 16.1903 11.1151C16.1069 11.0806 16.0175 11.0629 15.9272 11.063Z" fill="#FE8989"/>
<path d="M7.84027 11.063C7.6586 11.063 7.48437 11.1352 7.3559 11.2636C7.22744 11.3921 7.15527 11.5663 7.15527 11.748V24.7C7.15527 24.8818 7.22749 25.0562 7.35605 25.1847C7.4846 25.3133 7.65897 25.3855 7.84077 25.3855C8.02258 25.3855 8.19694 25.3133 8.32549 25.1847C8.45405 25.0562 8.52627 24.8818 8.52627 24.7V11.751C8.52666 11.6607 8.50921 11.5712 8.4749 11.4877C8.44059 11.4042 8.3901 11.3283 8.32635 11.2643C8.26259 11.2004 8.18683 11.1497 8.10341 11.1151C8.01999 11.0806 7.93056 11.0629 7.84027 11.063Z" fill="#FE8989"/>
<path d="M1.94609 9.17591V26.0659C1.93774 27.0289 2.29719 27.9589 2.95109 28.6659C3.26598 29.0005 3.64588 29.2673 4.06751 29.4499C4.48914 29.6325 4.94361 29.7271 5.40309 29.7279H18.3661C18.8251 29.7268 19.279 29.632 19.7001 29.4494C20.1212 29.2668 20.5006 29.0002 20.8151 28.6659C21.469 27.9589 21.8284 27.0289 21.8201 26.0659V9.17591C22.4342 9.01254 22.9679 8.63139 23.3217 8.10353C23.6755 7.57568 23.8252 6.93715 23.743 6.30704C23.6607 5.67693 23.3521 5.09824 22.8747 4.67889C22.3972 4.25955 21.7835 4.02817 21.1481 4.02791H17.6401V3.17191C17.642 2.81536 17.573 2.46198 17.4371 2.13231C17.3013 1.80264 17.1013 1.50323 16.8488 1.25148C16.5963 0.999729 16.2964 0.800645 15.9663 0.665789C15.6362 0.530933 15.2826 0.462992 14.9261 0.465911H8.84009C8.48362 0.463125 8.13016 0.531164 7.8002 0.66608C7.47025 0.800995 7.17037 1.0001 6.91798 1.25184C6.66559 1.50358 6.46571 1.80294 6.32994 2.13255C6.19418 2.46215 6.12522 2.81544 6.12709 3.17191V4.02891H2.61809C1.98328 4.03007 1.37053 4.26185 0.893863 4.6811C0.4172 5.10035 0.109105 5.67851 0.0269215 6.30797C-0.0552621 6.93744 0.0940645 7.57532 0.447108 8.10289C0.800152 8.63047 1.33286 9.0118 1.94609 9.17591ZM18.3661 28.3569H5.40309C5.11424 28.3459 4.83051 28.2772 4.56856 28.155C4.30661 28.0328 4.07171 27.8594 3.87767 27.6452C3.68363 27.4309 3.53436 27.18 3.4386 26.9073C3.34285 26.6346 3.30256 26.3454 3.32009 26.0569V9.23691H20.4501V26.0659C20.4676 26.3544 20.4273 26.6436 20.3316 26.9163C20.2358 27.1891 20.0865 27.4399 19.8925 27.6542C19.6985 27.8684 19.4636 28.0417 19.2016 28.164C18.9397 28.2862 18.6559 28.3549 18.3671 28.3659L18.3661 28.3569ZM7.49709 3.17191C7.49478 2.99519 7.52799 2.8198 7.59475 2.65615C7.6615 2.49251 7.76043 2.34393 7.88569 2.21924C8.01094 2.09455 8.15996 1.99628 8.3239 1.93026C8.48784 1.86424 8.66338 1.83182 8.84009 1.83491H14.9251C15.1017 1.83182 15.2772 1.86421 15.441 1.93017C15.6049 1.99613 15.7539 2.09431 15.8791 2.21889C16.0044 2.34348 16.1033 2.49193 16.1701 2.65546C16.2369 2.81899 16.2703 2.99427 16.2681 3.17091V4.02791H7.49709V3.17191ZM2.61809 5.39891H21.1491C21.4702 5.40805 21.775 5.54202 21.9989 5.77235C22.2227 6.00268 22.348 6.31122 22.348 6.63241C22.348 6.95361 22.2227 7.26214 21.9989 7.49247C21.775 7.7228 21.4702 7.85677 21.1491 7.86591H2.61809C2.29702 7.85677 1.99217 7.7228 1.76831 7.49247C1.54445 7.26214 1.41921 6.95361 1.41921 6.63241C1.41921 6.31122 1.54445 6.00268 1.76831 5.77235C1.99217 5.54202 2.29702 5.40805 2.61809 5.39891Z" fill="#FE8989"/>
<path d="M11.8832 11.063C11.7016 11.063 11.5273 11.1352 11.3989 11.2636C11.2704 11.3921 11.1982 11.5663 11.1982 11.748V24.7C11.1982 24.8818 11.2705 25.0562 11.399 25.1847C11.5276 25.3133 11.7019 25.3855 11.8837 25.3855C12.0655 25.3855 12.2399 25.3133 12.3685 25.1847C12.497 25.0562 12.5692 24.8818 12.5692 24.7V11.751C12.5696 11.6607 12.5522 11.5712 12.5179 11.4877C12.4836 11.4042 12.4331 11.3283 12.3693 11.2643C12.3056 11.2004 12.2298 11.1497 12.1464 11.1151C12.063 11.0806 11.9735 11.0629 11.8832 11.063Z" fill="#FE8989"/>
</svg>
