<svg width="36" height="43" viewBox="0 0 36 43" fill="currentColor" xmlns="http://www.w3.org/2000/svg">
<path d="M34.268 21.6179C34.0068 21.6179 33.7562 21.7217 33.5715 21.9064C33.3868 22.0912 33.283 22.3417 33.283 22.6029V40.145H22.718V29.1329C22.718 28.8717 22.6142 28.6212 22.4295 28.4364C22.2448 28.2517 21.9942 28.1479 21.733 28.1479H14.02C13.7588 28.1479 13.5082 28.2517 13.3235 28.4364C13.1388 28.6212 13.035 28.8717 13.035 29.1329V37.865C13.0308 37.9969 13.0531 38.1283 13.1007 38.2514C13.1483 38.3745 13.2202 38.4868 13.312 38.5816C13.4038 38.6765 13.5138 38.7518 13.6353 38.8033C13.7569 38.8548 13.8875 38.8813 14.0195 38.8813C14.1515 38.8813 14.2821 38.8548 14.4037 38.8033C14.5252 38.7518 14.6352 38.6765 14.727 38.5816C14.8188 38.4868 14.8907 38.3745 14.9383 38.2514C14.9859 38.1283 15.0082 37.9969 15.004 37.865V30.1179H20.748V40.145H2.469V16.0449L17.876 3.69695L33.652 16.3399C33.7524 16.4252 33.8689 16.4894 33.9946 16.5289C34.1203 16.5683 34.2526 16.5821 34.3837 16.5695C34.5148 16.5569 34.6421 16.5182 34.7579 16.4555C34.8738 16.3929 34.9759 16.3076 35.0583 16.2048C35.1406 16.102 35.2015 15.9837 35.2373 15.8569C35.2732 15.7302 35.2832 15.5975 35.2669 15.4668C35.2505 15.3361 35.2081 15.21 35.1422 15.096C35.0763 14.982 34.9881 14.8823 34.883 14.8029L18.49 1.66695C18.3154 1.52697 18.0983 1.45068 17.8745 1.45068C17.6507 1.45068 17.4336 1.52697 17.259 1.66695L0.868999 14.8029C0.753871 14.8951 0.660934 15.012 0.597063 15.1449C0.533192 15.2779 0.50002 15.4235 0.5 15.5709V41.13C0.5 41.3912 0.603776 41.6417 0.7885 41.8265C0.973223 42.0112 1.22376 42.115 1.485 42.115H34.268C34.5292 42.115 34.7798 42.0112 34.9645 41.8265C35.1492 41.6417 35.253 41.3912 35.253 41.13V22.6029C35.253 22.3417 35.1492 22.0912 34.9645 21.9064C34.7798 21.7217 34.5292 21.6179 34.268 21.6179Z" fill="currentColor" stroke="currentColor"/>
</svg>
