<svg width="367" height="223" viewBox="0 0 367 223" fill="none" xmlns="http://www.w3.org/2000/svg">
<path d="M142.158 207.756C143.019 207.676 143.88 207.599 144.74 207.526L78.2556 187.676C78.4556 187.914 78.6591 188.147 78.8665 188.376C79.1665 188.598 79.4585 188.816 79.7515 189.04C82.2775 190.824 84.6866 192.762 87.1416 194.64C87.2296 194.674 87.3145 194.715 87.3955 194.763C89.9885 196.334 92.5625 197.999 95.2405 199.449C98.5765 200.84 101.981 202.076 105.427 203.159C109.887 204.559 114.417 205.718 118.98 206.73C119.131 206.698 119.286 206.69 119.438 206.707C119.742 206.566 120.086 206.54 120.407 206.635C120.849 206.753 121.295 206.861 121.743 206.967C125.389 207.361 129.044 207.642 132.708 207.809C135.855 207.822 139.011 207.859 142.158 207.756Z" fill="#292015"/>
<path fill-rule="evenodd" clip-rule="evenodd" d="M172.021 193.731C170.061 193.831 165.255 193.499 166.549 191.896C180.708 174.378 168.144 150.401 146.879 140.109C146.698 140.022 146.559 139.867 146.493 139.678C146.426 139.489 146.437 139.281 146.523 139.1C146.575 138.992 146.651 138.899 146.745 138.826C165.822 124.086 178.475 101.577 178.475 75.8739C178.475 47.2229 164.704 22.9579 141.103 9.81588C140.935 9.72287 140.809 9.56841 140.752 9.38485C137.94 8.31585 135.178 7.12291 132.424 5.90291C126.699 3.73893 120.81 2.03358 114.813 0.802938C114.687 0.855501 114.549 0.873019 114.413 0.853841C102.619 -0.83508 90.602 -0.0123763 79.1484 3.2679C76.9014 4.1009 74.6063 4.79082 72.3183 5.50582C71.7956 5.70115 71.2737 5.90125 70.7524 6.10592C70.5973 6.22318 70.418 6.30411 70.2275 6.34285C68.7195 7.08386 67.2093 7.82385 65.7143 8.59285C61.7143 10.6489 57.8864 13.0349 54.1144 15.4759C50.2365 17.9642 46.492 20.6545 42.8964 23.5358C41.5764 24.6018 40.2174 25.6358 38.9404 26.7548C36.6937 28.8968 34.4969 31.1759 32.3503 33.5919C32.2899 33.6619 32.2167 33.7197 32.1345 33.7619C18.6975 40.8069 8.02348 54.1189 3.20648 68.5039C-4.69952 92.1219 2.13833 122.481 22.3483 138.15C22.5073 138.271 22.6114 138.451 22.6379 138.65C22.6643 138.848 22.611 139.049 22.4894 139.208C22.4449 139.266 22.392 139.318 22.3325 139.361C7.68346 150.086 4.35234 170.514 17.7643 173.649C17.9532 173.693 18.1183 173.807 18.2253 173.969C18.3323 174.13 18.373 174.327 18.3393 174.518L14.3483 197.489C14.328 197.595 14.3317 197.705 14.3588 197.81C14.386 197.915 14.4359 198.013 14.5053 198.096C19.8843 204.751 27.6054 206.256 35.5544 202.858C35.6552 202.816 35.7455 202.753 35.8188 202.673C35.8921 202.592 35.9467 202.496 35.9785 202.392L40.8115 187.4C40.8604 187.244 40.959 187.108 41.0922 187.013C41.2254 186.919 41.3861 186.87 41.5495 186.875C53.017 186.961 64.3908 184.805 75.0314 180.529C76.2734 180.036 76.0053 181.729 75.9203 182.252C75.8614 182.617 75.5653 182.823 75.1503 182.952C75.1693 182.991 75.1885 183.031 75.2055 183.072C75.4664 183.651 75.7617 184.214 76.0903 184.757C76.2467 184.894 76.3699 185.065 76.4504 185.257C78.3734 189.575 82.3113 192.427 86.3293 194.671C90.4087 196.9 94.6406 198.838 98.9933 200.471C109.875 204.659 121.215 207.543 132.776 209.062C142.139 210.29 151.77 210.968 161.162 209.662C167.025 208.867 172.783 207.432 178.332 205.382C181.142 199.866 179.731 193.332 172.021 193.731Z" fill="#131112"/>
<path d="M121.076 112.78C125.353 111.901 125.681 111.838 128.684 112.422C129.733 112.613 130.694 113.134 131.426 113.91C131.893 114.381 132.228 114.968 132.394 115.61C132.56 116.253 132.552 116.928 132.37 117.567C132.306 117.783 132.198 117.984 132.053 118.157C131.907 118.329 131.728 118.47 131.525 118.57C131.323 118.67 131.102 118.727 130.877 118.738C130.652 118.749 130.426 118.713 130.215 118.633C124.163 116.359 116.205 119.375 115.488 119.582C111.329 120.782 109.101 119.882 108.587 120.676C101.904 131.015 92.2268 139.07 80.8475 143.768C80.6611 143.845 80.513 143.993 80.4356 144.179C80.3582 144.365 80.3576 144.574 80.4344 144.761C80.483 144.878 80.5604 144.982 80.6592 145.062C80.7581 145.142 80.8755 145.196 81.0005 145.219C126.333 153.319 171.587 120.132 171.587 74.5189C171.587 10.2189 98.8695 -17.191 47.7085 25.461C47.5528 25.5887 47.4543 25.7731 47.4344 25.9735C47.4145 26.174 47.475 26.3741 47.6026 26.5299C47.6878 26.6339 47.7989 26.7134 47.9249 26.7603C48.0508 26.8072 48.1869 26.8198 48.3194 26.7969C51.8214 26.2322 55.3685 25.9935 58.9146 26.0839C91.5066 25.9379 117.631 52.4329 118.629 84.7909C118.634 84.975 118.707 85.1509 118.833 85.2854C118.958 85.4199 119.129 85.5036 119.313 85.5209C137.82 87.3849 132.554 103.121 121.456 108.346C120.718 108.692 120.373 112.43 121.078 112.789" fill="#B4DBFF"/>
<path d="M105.902 124.478C99.4161 133.024 90.766 139.684 80.8454 143.769C80.6591 143.846 80.5108 143.994 80.4333 144.18C80.3559 144.366 80.3556 144.576 80.4323 144.762C80.481 144.879 80.5581 144.983 80.6569 145.063C80.7558 145.143 80.8732 145.197 80.9983 145.22C123.519 152.82 165.972 124.091 171.073 82.8539C159.565 123.191 123.296 125.728 105.901 124.477" fill="#B4DBFF"/>
<path fill-rule="evenodd" clip-rule="evenodd" d="M142.28 43.7198C161.58 43.7198 171.308 67.1618 157.647 80.8198C143.986 94.4778 120.548 84.7468 120.548 65.4508C120.548 59.6862 122.837 54.1578 126.914 50.0815C130.99 46.0053 136.518 43.7151 142.282 43.7148" fill="#292015"/>
<path d="M92.3684 46.8469C83.094 37.5727 70.5153 32.3624 57.3994 32.3624C44.2835 32.3624 31.7048 37.5727 22.4304 46.8469C17.8382 51.4391 14.1953 56.8908 11.71 62.8907C9.22464 68.8907 7.94556 75.3216 7.94556 81.8159C7.94556 88.3103 9.22464 94.7411 11.71 100.741C14.1953 106.741 17.8382 112.193 22.4304 116.785C31.7047 126.058 44.2826 131.267 57.3975 131.267C70.5124 131.267 83.0903 126.058 92.3645 116.785C101.639 107.511 106.849 94.9318 106.849 81.8159C106.849 68.7 101.639 56.1213 92.3645 46.8469" fill="url(#paint0_linear)"/>
<path d="M7.94141 81.818C7.94008 94.9338 13.1491 107.513 22.4224 116.788C31.6956 126.064 44.2736 131.275 57.3894 131.277C63.8857 131.278 70.3185 129.999 76.3203 127.512C82.3221 125.026 87.7754 121.382 92.3684 116.788C92.9297 116.227 93.4741 115.656 94.0015 115.074C71.7645 131.05 15.9265 125.916 7.94653 81.8169" fill="#B4DBFF"/>
<path fill-rule="evenodd" clip-rule="evenodd" d="M57.4004 39.4489C68.6373 39.4489 79.4141 43.9128 87.3599 51.8585C95.3056 59.8042 99.7695 70.5809 99.7695 81.8179C99.7695 87.3818 98.6734 92.8912 96.5442 98.0316C94.4149 103.172 91.2942 107.843 87.3599 111.777C83.4255 115.711 78.7547 118.832 73.6143 120.961C68.4738 123.09 62.9643 124.186 57.4004 124.186C46.1639 124.186 35.3877 119.722 27.4421 111.777C19.4966 103.832 15.0327 93.0554 15.0325 81.8188C15.0325 70.582 19.4962 59.8054 27.4417 51.8595C35.3871 43.9136 46.1635 39.4494 57.4004 39.4489Z" fill="#292015"/>
<path d="M21.1524 166.37C30.8244 162.463 38.0294 167.123 41.3374 170.079C43.9374 172.404 55.8655 152.111 52.5015 142.936C49.9715 136.036 38.0255 137.324 32.0015 139.536C19.0115 144.301 12.0453 159.947 16.3093 164.784C17.3373 165.955 20.1805 166.764 21.1475 166.373" fill="#B4DBFF"/>
<path d="M21.0295 166.37C30.7015 162.463 37.9066 167.123 41.2136 170.078C43.8136 172.403 55.7417 152.11 52.3777 142.935C52.0749 142.101 51.6041 141.338 50.9946 140.694C53.2326 155.522 26.8165 166.531 15.1865 162.832C16.1405 166.379 20.2725 166.675 21.0295 166.369" fill="#A7B5FF"/>
<path d="M22.1187 190.021C29.1577 189.327 31.3536 193.198 31.9566 191.311L37.0567 175.375C37.103 175.234 37.1064 175.083 37.0665 174.941C37.0266 174.798 36.9451 174.671 36.8326 174.575C35.2406 173.11 33.2992 172.078 31.1942 171.579C29.0892 171.079 26.8911 171.129 24.8106 171.722C24.6728 171.76 24.5488 171.837 24.4534 171.943C24.358 172.049 24.2952 172.181 24.2725 172.322L21.2967 189.141C21.2615 189.339 21.306 189.542 21.4207 189.707C21.5355 189.872 21.7109 189.984 21.9085 190.02C21.9778 190.032 22.0487 190.035 22.1187 190.028" fill="#B4DBFF"/>
<path d="M22.1165 190.021C29.1555 189.327 31.3513 193.198 31.9553 191.311L37.0554 175.375C37.1018 175.234 37.1051 175.083 37.0652 174.941C37.0253 174.798 36.9439 174.671 36.8313 174.575C35.0168 172.962 32.8025 171.865 30.4195 171.4C32.1195 179.445 24.6335 184.508 21.8345 186.093L21.2954 189.138C21.2599 189.335 21.3041 189.539 21.4185 189.704C21.5329 189.868 21.7079 189.981 21.9053 190.017C21.9756 190.03 22.0474 190.032 22.1184 190.025" fill="#A7B5FF"/>
<path d="M103.747 154.979C100.841 155.34 97.9188 155.551 94.9916 155.612C94.8923 155.614 94.7946 155.635 94.7035 155.674C94.6124 155.714 94.5298 155.771 94.4608 155.842C94.3918 155.913 94.3376 155.998 94.3011 156.09C94.2647 156.182 94.2469 156.281 94.2486 156.38C94.2486 156.389 94.2486 156.399 94.2486 156.408L95.4986 181.327C95.509 181.526 95.5972 181.713 95.744 181.848C95.8908 181.982 96.0845 182.054 96.2836 182.047L104.877 181.738C105.077 181.731 105.266 181.645 105.403 181.499C105.54 181.353 105.613 181.158 105.607 180.958V180.95L104.598 155.705C104.594 155.606 104.57 155.508 104.529 155.418C104.487 155.328 104.428 155.247 104.356 155.18C104.283 155.112 104.197 155.06 104.104 155.026C104.011 154.991 103.912 154.976 103.813 154.98C103.791 154.98 103.769 154.98 103.747 154.986" fill="#B4DBFF"/>
<path d="M130.151 147.285C127.927 148.338 125.656 149.298 123.338 150.164C123.181 150.221 123.047 150.329 122.958 150.472C122.87 150.614 122.831 150.781 122.848 150.948L125.472 177.868C125.491 178.067 125.588 178.251 125.743 178.379C125.897 178.507 126.096 178.569 126.295 178.55C126.326 178.547 126.355 178.542 126.385 178.536L134.008 176.918C134.192 176.88 134.355 176.776 134.466 176.625C134.576 176.475 134.627 176.288 134.608 176.102L132.024 150.789C131.94 149.958 131.733 146.532 130.154 147.281" fill="#B4DBFF"/>
<path d="M88.0043 157.331C87.9897 156.99 87.8595 156.665 87.6352 156.408C87.4109 156.152 87.1057 155.979 86.7702 155.919L72.5922 153.267C72.2396 153.197 71.8735 153.259 71.5644 153.443C67.0368 156.101 62.1199 158.032 56.9933 159.164C56.8654 159.187 56.7457 159.242 56.6462 159.326C56.5466 159.41 56.4707 159.518 56.4262 159.64C53.5702 167.145 48.7934 174.123 43.5644 176.486C43.0764 176.706 42.0333 179.238 43.5043 179.186C56.8283 178.672 68.6392 173.234 74.7902 169.842C74.9949 169.725 75.2249 169.659 75.4606 169.649C75.6963 169.64 75.9307 169.687 76.1442 169.787C80.6042 171.797 82.1152 176.492 82.7582 176.787C82.9019 176.856 83.0639 176.877 83.2204 176.847C83.3768 176.817 83.5195 176.737 83.6274 176.62C85.9946 173.982 87.6429 170.779 88.4142 167.32C88.4503 167.178 88.4648 167.031 88.4572 166.885L88.0043 157.331Z" fill="#B4DBFF"/>
<path d="M88.0043 157.331C87.9897 156.99 87.8595 156.665 87.6352 156.408C87.4109 156.152 87.1059 155.979 86.7704 155.919L72.5924 153.267C72.2398 153.197 71.8735 153.259 71.5644 153.443C71.0364 153.743 70.4174 154.09 69.7204 154.457C70.2154 166.814 64.7853 173.718 47.1383 174.124C46.0685 175.081 44.8653 175.878 43.5663 176.489C43.0783 176.709 42.0353 179.241 43.5063 179.189C56.8303 178.675 68.6414 173.237 74.7924 169.845C74.9971 169.728 75.2269 169.662 75.4626 169.652C75.6982 169.642 75.9329 169.69 76.1464 169.79C80.6064 171.8 82.1174 176.495 82.7604 176.79C82.9041 176.859 83.0659 176.88 83.2223 176.85C83.3788 176.82 83.5214 176.74 83.6293 176.623C85.9965 173.985 87.6451 170.782 88.4164 167.323C88.4525 167.181 88.467 167.034 88.4594 166.888L88.0043 157.331Z" fill="#A7B5FF"/>
<path d="M118.98 175.979L118.019 166.12C118 165.926 117.907 165.747 117.76 165.619C117.613 165.492 117.422 165.426 117.228 165.435L112.036 165.674C111.836 165.684 111.648 165.773 111.514 165.921C111.379 166.068 111.308 166.263 111.316 166.463L112.074 185.412C113.564 181.746 115.937 178.506 118.983 175.98L118.98 175.979ZM139.583 162.511L139.983 166.611C141.6 166.276 142.954 166.059 143.921 165.924C143.235 164.547 142.52 163.178 141.776 161.817C141.345 161.046 139.488 161.64 139.577 162.51L139.583 162.511Z" fill="#B4DBFF"/>
<path d="M85.7366 193.311C88.2688 194.713 90.8704 195.987 93.5315 197.126C93.2228 194.417 93.0227 191.525 92.9314 188.453C91.2754 188.513 89.5835 188.903 89.5315 187.828L89.2236 181.587C89.2143 181.386 89.1255 181.197 88.9768 181.061C88.8281 180.926 88.6314 180.855 88.4304 180.864C88.3264 180.869 88.2245 180.895 88.1311 180.941C88.0377 180.987 87.9547 181.051 87.8875 181.131C85.3698 184.24 81.8715 186.403 77.9646 187.266C80.1604 189.743 82.7953 191.792 85.7366 193.311Z" fill="#B4DBFF"/>
<path d="M136.842 144.816C138.687 147.478 140.341 150.267 141.793 153.163C142.393 154.369 143.579 152.476 144.234 153.591C150.414 164.212 155.142 175.613 158.293 187.491C158.345 187.685 158.472 187.85 158.647 187.951C158.821 188.051 159.028 188.078 159.222 188.026C159.37 187.986 159.503 187.903 159.603 187.786C161.531 185.587 163.021 183.04 163.991 180.281C160.848 180.181 146.656 162.906 148.044 148.416C145.224 146.492 142.227 144.842 139.094 143.488C137.747 142.911 136.147 143.54 136.84 144.815" fill="#A7B5FF"/>
<path d="M160.856 198.609C161.279 200.809 161.656 203.021 161.987 205.244C162.015 205.432 162.113 205.603 162.261 205.723C162.409 205.843 162.597 205.902 162.787 205.889C171.402 205.312 173.387 200.029 172.509 198.941C171.863 198.146 168.248 199.25 164.2 197.632C162.078 196.783 160.4 196.261 160.853 198.61" fill="#A7B5FF"/>
<path d="M160.857 198.609C161.28 200.809 161.657 203.021 161.988 205.244C162.016 205.432 162.114 205.603 162.262 205.723C162.41 205.842 162.598 205.902 162.788 205.889C167.551 205.57 170.288 203.811 171.63 202.119C169.984 202.501 168.255 202.233 166.802 201.371C165.349 200.509 164.284 199.119 163.83 197.492C161.886 196.736 160.424 196.403 160.848 198.614" fill="url(#paint1_linear)"/>
<path d="M54.4113 59.1649C40.6753 76.5399 52.8513 102.965 75.7023 102.965C80.2083 102.978 84.6451 101.856 88.6025 99.701C89.7335 99.084 93.1023 89.5389 92.8483 88.2079C89.3183 69.2569 72.1743 57.808 54.9623 58.882C54.8555 58.8872 54.7512 58.9156 54.6564 58.9651C54.5616 59.0147 54.4785 59.0842 54.4132 59.169" fill="#F0FAFC"/>
<path d="M78.7456 109.141C60.2986 110.799 42.3316 96.5898 42.3316 75.8918C42.3356 71.1923 43.3308 66.5465 45.2525 62.2578C45.3337 62.0742 45.3391 61.866 45.2671 61.6786C45.1952 61.4911 45.0519 61.3398 44.8687 61.2578C44.7768 61.2167 44.6776 61.1943 44.5769 61.1919C44.4763 61.1895 44.3762 61.2072 44.2825 61.2439C38.5887 63.4886 33.5551 67.1368 29.6497 71.8492C25.7443 76.5616 23.0942 82.1852 21.9456 88.1969C21.927 88.2893 21.927 88.3844 21.9456 88.4768C22.8192 93.1326 24.6012 97.5707 27.19 101.538C29.7788 105.505 33.1238 108.923 37.0337 111.598C40.9437 114.272 45.3421 116.15 49.9778 117.124C54.6136 118.099 59.3958 118.151 64.0516 117.277C69.5844 116.239 74.7973 113.92 79.2735 110.506C79.4333 110.383 79.5381 110.203 79.5645 110.003C79.5909 109.803 79.537 109.602 79.4146 109.442C79.3368 109.341 79.2347 109.26 79.1177 109.209C79.0008 109.158 78.8729 109.137 78.7456 109.148" fill="#F0FAFC"/>
<path d="M27.1204 75.283C24.569 79.2065 22.8108 83.5916 21.9446 88.1909C21.926 88.2833 21.926 88.3785 21.9446 88.4709C22.8238 93.1303 24.612 97.5708 27.2073 101.539C29.8026 105.507 33.154 108.925 37.0704 111.598C40.9867 114.271 45.3912 116.147 50.0323 117.117C54.6734 118.088 59.4601 118.135 64.1194 117.256C66.8461 116.742 69.5044 115.914 72.0415 114.791C42.5345 119.222 26.9904 92.134 27.1204 75.291" fill="#C5ECFD"/>
<path fill-rule="evenodd" clip-rule="evenodd" d="M153.195 54.541C143.495 44.841 126.845 51.7469 126.845 65.4559C126.845 79.1649 143.501 86.0689 153.195 76.3709C156.09 73.4762 157.716 69.5501 157.716 65.4564C157.716 61.3627 156.09 57.4367 153.195 54.542" fill="white"/>
<path fill-rule="evenodd" clip-rule="evenodd" d="M135.01 57.3589C138.137 57.3589 141.136 58.6011 143.347 60.8121C145.558 63.0232 146.801 66.022 146.801 69.1489C146.801 72.2758 145.558 75.2747 143.347 77.4857C141.136 79.6968 138.137 80.939 135.01 80.939C131.884 80.939 128.885 79.6969 126.674 77.4861C124.463 75.2752 123.221 72.2766 123.22 69.1499C123.22 66.0229 124.463 63.024 126.674 60.8127C128.885 58.6015 131.884 57.3592 135.01 57.3589Z" fill="#292015"/>
<path fill-rule="evenodd" clip-rule="evenodd" d="M79.8755 94.1649C83.5021 94.1649 86.9801 92.7243 89.5444 90.1599C92.1088 87.5955 93.5496 84.1174 93.5496 80.4908C93.5496 76.8643 92.1088 73.3863 89.5444 70.8219C86.9801 68.2575 83.5021 66.8169 79.8755 66.8169C76.2489 66.8169 72.7709 68.2575 70.2065 70.8219C67.6422 73.3863 66.2014 76.8643 66.2014 80.4908C66.2014 84.1174 67.6422 87.5955 70.2065 90.1599C72.7709 92.7243 76.2489 94.1649 79.8755 94.1649Z" fill="#292015"/>
<path fill-rule="evenodd" clip-rule="evenodd" d="M100.371 173.467C104.932 173.467 104.932 180.396 100.371 180.396C95.8104 180.396 95.8104 173.467 100.371 173.467Z" fill="#292015"/>
<path fill-rule="evenodd" clip-rule="evenodd" d="M129.669 169.042C134.23 169.042 134.23 175.971 129.669 175.971C125.108 175.971 125.107 169.042 129.669 169.042Z" fill="#292015"/>
<path fill-rule="evenodd" clip-rule="evenodd" d="M68.4414 69.3329C69.1654 69.333 69.8825 69.4758 70.5513 69.7529C71.2201 70.0301 71.8278 70.4363 72.3396 70.9484C72.8514 71.4604 73.2572 72.0681 73.5342 72.7371C73.8111 73.406 73.9537 74.1229 73.9536 74.8469C73.9535 75.5709 73.8106 76.2877 73.5334 76.9565C73.2563 77.6254 72.8502 78.233 72.3381 78.7449C71.8261 79.2567 71.2182 79.6628 70.5493 79.9397C69.8804 80.2166 69.1634 80.359 68.4395 80.3589C66.9775 80.3586 65.5757 79.7778 64.542 78.7439C63.5083 77.71 62.9275 76.3079 62.9275 74.8459C62.9275 73.3838 63.5083 71.9815 64.5422 70.9476C65.5761 69.9137 66.9783 69.3329 68.4404 69.3329" fill="white"/>
<path d="M67.2944 189.396C74.5054 196.587 82.4355 203.188 91.5325 207.86C99.9235 212.17 109.053 215.19 118.032 218.026C125.249 220.255 132.71 221.598 140.251 222.026C147.705 222.505 155.186 223.077 162.402 220.803C171.386 217.972 180.612 211.823 180.751 201.403C180.735 199.739 180.067 198.147 178.89 196.971C177.713 195.794 176.122 195.125 174.458 195.109C172.798 195.139 171.214 195.812 170.04 196.986C168.866 198.16 168.194 199.743 168.164 201.403C168.164 201.733 168.004 203.255 168.183 201.924C168.362 200.593 168.142 201.969 168.07 202.246C168.018 202.631 167.898 203.004 167.714 203.346C167.65 203.416 168.527 201.746 168.043 202.541C167.912 202.756 167.814 202.994 167.689 203.213C167.521 203.507 167.317 203.778 167.146 204.069C166.689 204.846 168.28 202.801 167.345 203.803C166.822 204.382 166.265 204.93 165.677 205.444C164.548 206.4 166.864 204.619 165.8 205.357C165.506 205.557 165.214 205.766 164.913 205.957C164.192 206.42 163.448 206.846 162.684 207.232C162.362 207.395 162.038 207.553 161.71 207.704C161.547 207.779 161.383 207.85 161.22 207.926C160.396 208.307 161.986 207.607 161.986 207.607C161.786 207.564 161.195 207.922 161.001 207.995C160.597 208.148 160.191 208.293 159.781 208.431C158.436 208.885 157.067 209.262 155.681 209.562C155.166 209.674 154.649 209.774 154.129 209.862C154.013 209.881 153.894 209.896 153.777 209.918C153.015 210.057 155.105 209.783 154.954 209.763C154.706 209.767 154.458 209.794 154.216 209.844C152.331 209.93 150.444 209.913 148.562 209.793C146.269 209.734 143.977 209.654 141.686 209.528C139.677 209.417 137.669 209.272 135.667 209.064C134.876 208.982 134.088 208.88 133.298 208.785C135.523 209.051 134.093 208.891 133.56 208.81C133.103 208.743 132.647 208.67 132.192 208.59C129.092 208.045 126.029 207.311 123.02 206.39C119.399 205.301 115.83 204.046 112.26 202.804C109.994 202.015 107.722 201.242 105.481 200.383C104.912 200.164 104.345 199.941 103.781 199.714C103.352 199.541 101.764 198.828 103.447 199.587C102.386 199.109 101.315 198.656 100.263 198.158C95.8603 196.078 91.665 193.585 87.7336 190.712C87.2266 190.341 86.7337 189.895 86.2017 189.563C87.7627 190.538 86.0624 189.441 85.6384 189.096C84.5944 188.249 83.5679 187.38 82.5586 186.491C80.3696 184.565 78.2586 182.55 76.1956 180.491C75.0058 179.329 73.4087 178.678 71.7456 178.678C70.0825 178.678 68.4855 179.329 67.2957 180.491C66.1426 181.685 65.498 183.281 65.498 184.941C65.498 186.601 66.1426 188.197 67.2957 189.391L67.2944 189.396Z" fill="#131112"/>
<path d="M160.252 197.845C161.674 201.255 166.066 201.429 169.261 201.204C170.477 201.119 171.521 199.453 170.374 198.518C168.967 197.315 167.226 196.572 165.385 196.386C164.466 196.316 163.543 196.443 162.678 196.757C161.812 197.072 161.024 197.568 160.365 198.211C158.987 199.389 157.693 200.85 158.605 202.721C159.019 203.453 159.603 204.074 160.308 204.533C161.012 204.992 161.817 205.274 162.654 205.356C164.426 205.643 166.254 205.805 167.587 204.381C168.168 203.693 168.53 202.846 168.626 201.95C168.722 201.054 168.547 200.15 168.125 199.354C166.209 195.535 161.592 198.698 160.616 201.59C160.18 202.883 160.078 205.017 161.217 206.007C162.688 207.292 164.557 206.354 165.529 204.978C166.564 203.554 167.014 201.788 166.786 200.043C166.723 199.65 166.563 199.279 166.322 198.963C166.081 198.647 165.765 198.396 165.403 198.231C165.041 198.067 164.644 197.994 164.248 198.02C163.851 198.046 163.467 198.17 163.13 198.381C161.737 199.229 161.339 201.465 161.697 202.943C162.073 204.498 163.959 205.824 165.39 204.62C165.92 203.991 166.246 203.214 166.323 202.395C166.4 201.575 166.225 200.752 165.821 200.035C164.577 198.423 162.772 199.76 161.956 200.999C160.946 202.532 160.719 204.757 162.35 205.968C163.137 206.475 164.059 206.732 164.995 206.703C165.931 206.675 166.837 206.363 167.592 205.809C167.934 205.536 168.206 205.186 168.387 204.787C168.567 204.388 168.651 203.952 168.63 203.515C168.609 203.078 168.485 202.652 168.267 202.272C168.05 201.892 167.745 201.569 167.379 201.33C164.996 199.984 163.97 202.962 163.765 204.739L165.757 203.222C165.167 203.036 164.547 202.969 163.931 203.024C163.316 203.078 162.717 203.254 162.169 203.541C160.34 204.409 161.937 207.123 163.758 206.259C163.939 206.174 164.138 206.13 164.339 206.13C164.539 206.13 164.738 206.174 164.919 206.259C165.153 206.318 165.397 206.324 165.632 206.275C165.868 206.227 166.09 206.126 166.281 205.981C166.473 205.835 166.629 205.648 166.738 205.433C166.847 205.219 166.906 204.982 166.912 204.742C166.948 204.293 167.099 203.86 167.352 203.487L166.412 204.21L165.593 203.41C165.477 203.485 165.341 203.52 165.204 203.51C165.015 203.493 164.337 203.601 164.224 203.444C164.339 203.057 164.532 202.698 164.792 202.39L163.581 202.231L163.792 202.347L163.069 201.407C163.137 201.653 163.155 201.911 163.121 202.164C163.02 202.631 163.035 202.708 163.165 202.395L164.278 201.934C164.71 202.267 164.869 202.188 164.757 201.697C164.778 201.465 164.82 201.236 164.882 201.012C163.984 200.422 163.587 200.476 163.692 201.173C163.672 201.37 163.635 201.564 163.581 201.754C163.469 202.214 163.141 202.62 163.035 203.054C162.579 203.46 162.745 203.779 163.535 204.011C163.5 203.799 163.484 203.585 163.487 203.37C163.515 202.935 163.644 202.512 163.864 202.136C164.085 201.759 164.39 201.439 164.756 201.202C164.932 201.04 165.124 200.898 165.331 200.778C165.704 200.956 165.502 202.086 165.239 202.296C164.719 202.712 162.962 202.296 162.413 202.084C162.213 202.008 161.363 201.36 161.396 201.635C161.373 201.445 162.158 200.82 162.271 200.718C162.608 200.338 163.021 200.033 163.483 199.824C163.946 199.615 164.447 199.506 164.955 199.504C166.123 199.567 167.241 200.002 168.146 200.744L169.259 198.058C167.998 198.167 166.729 198.126 165.478 197.937C164.878 197.837 163.565 197.682 163.285 197.009C163.162 196.614 162.894 196.28 162.534 196.076C162.174 195.872 161.751 195.812 161.349 195.909C160.947 196.022 160.606 196.288 160.4 196.651C160.194 197.013 160.14 197.442 160.249 197.845H160.252Z" fill="#131112"/>
<path d="M216.7 175C207.7 175 200.7 172.7 195.7 168.1C190.7 163.5 188.2 156.533 188.2 147.2V106.5C188.2 105.767 188.4 105.167 188.8 104.7C189.267 104.233 189.867 104 190.6 104H199.7C200.433 104 201 104.233 201.4 104.7C201.867 105.167 202.1 105.767 202.1 106.5V147.2C202.1 152.533 203.367 156.567 205.9 159.3C208.433 161.967 212.033 163.3 216.7 163.3C221.367 163.3 224.933 161.967 227.4 159.3C229.933 156.567 231.2 152.533 231.2 147.2V106.5C231.2 105.767 231.433 105.167 231.9 104.7C232.367 104.233 232.967 104 233.7 104H242.7C243.433 104 244 104.233 244.4 104.7C244.867 105.167 245.1 105.767 245.1 106.5V147.2C245.1 156.533 242.6 163.5 237.6 168.1C232.667 172.7 225.7 175 216.7 175ZM261.389 193C260.722 193 260.156 192.767 259.689 192.3C259.222 191.9 258.989 191.333 258.989 190.6V124.4C258.989 123.667 259.222 123.1 259.689 122.7C260.156 122.233 260.722 122 261.389 122H269.289C270.022 122 270.589 122.233 270.989 122.7C271.456 123.1 271.689 123.667 271.689 124.4V128.4C275.422 123.467 280.756 121 287.689 121C294.422 121 299.589 123.133 303.189 127.4C306.789 131.6 308.722 137.3 308.989 144.5C309.056 145.3 309.089 146.467 309.089 148C309.089 149.6 309.056 150.8 308.989 151.6C308.722 158.6 306.789 164.267 303.189 168.6C299.589 172.867 294.422 175 287.689 175C280.956 175 275.822 172.633 272.289 167.9V190.6C272.289 191.333 272.056 191.9 271.589 192.3C271.189 192.767 270.622 193 269.889 193H261.389ZM283.989 164.3C291.189 164.3 295.022 159.867 295.489 151C295.556 150.333 295.589 149.333 295.589 148C295.589 146.667 295.556 145.667 295.489 145C295.022 136.133 291.189 131.7 283.989 131.7C280.122 131.7 277.256 132.933 275.389 135.4C273.522 137.867 272.489 140.9 272.289 144.5L272.189 148.3L272.289 152.2C272.422 155.533 273.456 158.4 275.389 160.8C277.389 163.133 280.256 164.3 283.989 164.3ZM340.015 175C335.015 175 330.815 174.267 327.415 172.8C324.015 171.267 321.482 169.5 319.815 167.5C318.215 165.433 317.415 163.667 317.415 162.2C317.415 161.533 317.648 161 318.115 160.6C318.582 160.2 319.115 160 319.715 160H327.615C328.215 160 328.715 160.233 329.115 160.7C329.382 160.9 330.082 161.5 331.215 162.5C332.348 163.567 333.682 164.4 335.215 165C336.748 165.6 338.448 165.9 340.315 165.9C342.982 165.9 345.182 165.367 346.915 164.3C348.648 163.233 349.515 161.767 349.515 159.9C349.515 158.5 349.115 157.367 348.315 156.5C347.582 155.633 346.215 154.867 344.215 154.2C342.215 153.467 339.248 152.7 335.315 151.9C329.648 150.7 325.448 148.867 322.715 146.4C320.048 143.933 318.715 140.667 318.715 136.6C318.715 133.933 319.515 131.433 321.115 129.1C322.715 126.7 325.082 124.767 328.215 123.3C331.415 121.767 335.215 121 339.615 121C344.082 121 347.948 121.733 351.215 123.2C354.482 124.6 356.948 126.3 358.615 128.3C360.348 130.233 361.215 131.967 361.215 133.5C361.215 134.1 360.982 134.633 360.515 135.1C360.115 135.5 359.615 135.7 359.015 135.7H351.615C351.082 135.7 350.515 135.467 349.915 135C349.448 134.667 348.715 134.033 347.715 133.1C346.715 132.167 345.548 131.433 344.215 130.9C342.882 130.367 341.315 130.1 339.515 130.1C337.048 130.1 335.115 130.633 333.715 131.7C332.382 132.767 331.715 134.167 331.715 135.9C331.715 137.167 332.048 138.2 332.715 139C333.382 139.8 334.682 140.567 336.615 141.3C338.548 142.033 341.448 142.767 345.315 143.5C351.715 144.767 356.282 146.733 359.015 149.4C361.815 152.067 363.215 155.333 363.215 159.2C363.215 163.867 361.182 167.667 357.115 170.6C353.048 173.533 347.348 175 340.015 175Z" fill="#A7B5FF"/>
<defs>
<linearGradient id="paint0_linear" x1="7.94556" y1="81.8149" x2="106.849" y2="81.8149" gradientUnits="userSpaceOnUse">
<stop stop-color="#B5DCFF"/>
<stop offset="1" stop-color="#A7B5FF"/>
</linearGradient>
<linearGradient id="paint1_linear" x1="160.775" y1="201.405" x2="171.63" y2="201.405" gradientUnits="userSpaceOnUse">
<stop stop-color="#B5DCFF"/>
<stop offset="1" stop-color="#A7B5FF"/>
</linearGradient>
</defs>
</svg>
